REM DIRINDEX 1\5,1\2\6,1\2\7,1\3\8,1\3\9,1\4\10,1\4\11,1\4\12
REM DIRNAME cjc026,folder01,folder02,folder03,folder04,folder05,folder06,folder07,folder08,folder09,folder10,folder11
TITLE ""
FILE "EJE_DB3000_5th_6C_42.mp3" MP3
  TRACK 01 AUDIO
    TITLE "0:"
    INDEX 01 00:00:00
  TRACK 02 AUDIO
    TITLE "10:cjc026_11781"
    INDEX 01 00:00:08
  TRACK 03 AUDIO
    TITLE "0:"
    INDEX 01 00:01:27
  TRACK 04 AUDIO
    TITLE "11:cjc026_11782"
    INDEX 01 00:01:62
  TRACK 05 AUDIO
    TITLE "0:"
    INDEX 01 00:03:23
  TRACK 06 AUDIO
    TITLE "12:cjc026_11783"
    INDEX 01 00:03:58
  TRACK 07 AUDIO
    TITLE "0:"
    INDEX 01 00:05:03
  TRACK 08 AUDIO
    TITLE "10:cjc026_11784"
    INDEX 01 00:05:38
  TRACK 09 AUDIO
    TITLE "0:"
    INDEX 01 00:06:63
  TRACK 10 AUDIO
    TITLE "11:cjc026_11785"
    INDEX 01 00:07:25
  TRACK 11 AUDIO
    TITLE "0:"
    INDEX 01 00:08:61
  TRACK 12 AUDIO
    TITLE "12:cjc026_11786"
    INDEX 01 00:09:24
  TRACK 13 AUDIO
    TITLE "0:"
    INDEX 01 00:10:51
  TRACK 14 AUDIO
    TITLE "10:cjc026_11787"
    INDEX 01 00:11:12
  TRACK 15 AUDIO
    TITLE "0:"
    INDEX 01 00:12:47
  TRACK 16 AUDIO
    TITLE "11:cjc026_11788"
    INDEX 01 00:13:07
  TRACK 17 AUDIO
    TITLE "0:"
    INDEX 01 00:14:51
  TRACK 18 AUDIO
    TITLE "12:cjc026_11789"
    INDEX 01 00:15:11
  TRACK 19 AUDIO
    TITLE "0:"
    INDEX 01 00:16:47
  TRACK 20 AUDIO
    TITLE "10:cjc026_11790"
    INDEX 01 00:17:07
  TRACK 21 AUDIO
    TITLE "0:"
    INDEX 01 00:18:35
  TRACK 22 AUDIO
    TITLE "11:cjc026_11791"
    INDEX 01 00:18:67
  TRACK 23 AUDIO
    TITLE "0:"
    INDEX 01 00:20:25
  TRACK 24 AUDIO
    TITLE "12:cjc026_11792"
    INDEX 01 00:20:57
  TRACK 25 AUDIO
    TITLE "0:"
    INDEX 01 00:22:13
  TRACK 26 AUDIO
    TITLE "10:cjc026_11793"
    INDEX 01 00:22:45
  TRACK 27 AUDIO
    TITLE "0:"
    INDEX 01 00:23:57
  TRACK 28 AUDIO
    TITLE "11:cjc026_11794"
    INDEX 01 00:24:19
  TRACK 29 AUDIO
    TITLE "0:"
    INDEX 01 00:25:66
  TRACK 30 AUDIO
    TITLE "12:cjc026_11795"
    INDEX 01 00:26:23
  TRACK 31 AUDIO
    TITLE "0:"
    INDEX 01 00:27:37
  TRACK 32 AUDIO
    TITLE "10:cjc026_11796"
    INDEX 01 00:27:72
  TRACK 33 AUDIO
    TITLE "0:"
    INDEX 01 00:29:20
  TRACK 34 AUDIO
    TITLE "11:cjc026_11797"
    INDEX 01 00:29:55
  TRACK 35 AUDIO
    TITLE "0:"
    INDEX 01 00:31:15
  TRACK 36 AUDIO
    TITLE "12:cjc026_11798"
    INDEX 01 00:31:51
  TRACK 37 AUDIO
    TITLE "0:"
    INDEX 01 00:32:73
  TRACK 38 AUDIO
    TITLE "10:cjc026_11799"
    INDEX 01 00:33:35
  TRACK 39 AUDIO
    TITLE "0:"
    INDEX 01 00:34:52
  TRACK 40 AUDIO
    TITLE "11:cjc026_11800"
    INDEX 01 00:35:12
  TRACK 41 AUDIO
    TITLE "0:"
    INDEX 01 00:36:51
  TRACK 42 AUDIO
    TITLE "12:cjc026_11801"
    INDEX 01 00:37:14
  TRACK 43 AUDIO
    TITLE "0:"
    INDEX 01 00:38:33
  TRACK 44 AUDIO
    TITLE "10:cjc026_11802"
    INDEX 01 00:38:66
  TRACK 45 AUDIO
    TITLE "0:"
    INDEX 01 00:39:74
  TRACK 46 AUDIO
    TITLE "11:cjc026_11803"
    INDEX 01 00:40:37
  TRACK 47 AUDIO
    TITLE "0:"
    INDEX 01 00:41:40
  TRACK 48 AUDIO
    TITLE "12:cjc026_11804"
    INDEX 01 00:42:00
  TRACK 49 AUDIO
    TITLE "0:"
    INDEX 01 00:43:09
  TRACK 50 AUDIO
    TITLE "10:cjc026_11805"
    INDEX 01 00:43:44
  TRACK 51 AUDIO
    TITLE "0:"
    INDEX 01 00:44:66
  TRACK 52 AUDIO
    TITLE "11:cjc026_11806"
    INDEX 01 00:45:27
  TRACK 53 AUDIO
    TITLE "0:"
    INDEX 01 00:46:51
  TRACK 54 AUDIO
    TITLE "12:cjc026_11807"
    INDEX 01 00:47:12
  TRACK 55 AUDIO
    TITLE "0:"
    INDEX 01 00:48:31
  TRACK 56 AUDIO
    TITLE "10:cjc026_11808"
    INDEX 01 00:48:69
  TRACK 57 AUDIO
    TITLE "0:"
    INDEX 01 00:50:19
  TRACK 58 AUDIO
    TITLE "11:cjc026_11809"
    INDEX 01 00:50:57
  TRACK 59 AUDIO
    TITLE "0:"
    INDEX 01 00:52:04
  TRACK 60 AUDIO
    TITLE "12:cjc026_11810"
    INDEX 01 00:52:39
  TRACK 61 AUDIO
    TITLE "0:"
    INDEX 01 00:53:64
  TRACK 62 AUDIO
    TITLE "10:cjc026_11811"
    INDEX 01 00:54:27
  TRACK 63 AUDIO
    TITLE "0:"
    INDEX 01 00:55:38
  TRACK 64 AUDIO
    TITLE "11:cjc026_11812"
    INDEX 01 00:56:01
  TRACK 65 AUDIO
    TITLE "0:"
    INDEX 01 00:57:50
  TRACK 66 AUDIO
    TITLE "12:cjc026_11813"
    INDEX 01 00:58:10
  TRACK 67 AUDIO
    TITLE "0:"
    INDEX 01 00:59:21
  TRACK 68 AUDIO
    TITLE "10:cjc026_11814"
    INDEX 01 00:59:59
  TRACK 69 AUDIO
    TITLE "0:"
    INDEX 01 01:00:73
  TRACK 70 AUDIO
    TITLE "11:cjc026_11815"
    INDEX 01 01:01:36
  TRACK 71 AUDIO
    TITLE "0:"
    INDEX 01 01:03:05
  TRACK 72 AUDIO
    TITLE "12:cjc026_11816"
    INDEX 01 01:03:40
  TRACK 73 AUDIO
    TITLE "0:"
    INDEX 01 01:04:54
  TRACK 74 AUDIO
    TITLE "10:cjc026_11817"
    INDEX 01 01:05:17
  TRACK 75 AUDIO
    TITLE "0:"
    INDEX 01 01:06:28
  TRACK 76 AUDIO
    TITLE "11:cjc026_11818"
    INDEX 01 01:06:63
  TRACK 77 AUDIO
    TITLE "0:"
    INDEX 01 01:08:54
  TRACK 78 AUDIO
    TITLE "12:cjc026_11819"
    INDEX 01 01:09:14
  TRACK 79 AUDIO
    TITLE "0:"
    INDEX 01 01:10:25
